<?xml version="1.0" standalone="no"?>
<svg viewBox="0 0 200 200" xmlns="http://www.w3.org/2000/svg">
  <path fill="#9EF0F0" d="M30.8,-38.9C40.6,-35.2,49.9,-27.2,55.8,-16.4C61.8,-5.6,64.4,8.1,59.5,18.2C54.7,28.3,42.4,34.9,31.3,40.8C20.1,46.6,10.1,51.8,-4.3,57.6C-18.6,63.5,-37.1,70.1,-44.9,63.1C-52.7,56.2,-49.7,35.7,-50.9,19.5C-52,3.3,-57.3,-8.5,-58.3,-23.1C-59.3,-37.7,-55.9,-55,-45.5,-58.6C-35.1,-62.1,-17.5,-51.8,-3.5,-46.9C10.4,-42,20.9,-42.6,30.8,-38.9Z" transform="translate(100 100)" />
</svg>
